<svg width="84" height="84" viewBox="0 0 84 84" fill="none" xmlns="http://www.w3.org/2000/svg">
<rect x="1.755" y="1.755" width="80.49" height="80.49" rx="40.245" fill="#041840" stroke="#A3FFFC" stroke-width="3.51"/>
<path d="M37.048 56.8539V56.589C37.048 54.6209 35.8201 52.9053 34.2828 51.6774C32.2762 50.0771 30.8166 47.8927 30.1062 45.4265C29.3957 42.9603 29.4694 40.3341 30.3171 37.9116C31.1648 35.4891 32.7445 33.39 34.8377 31.9049C36.9309 30.4197 39.4339 29.6219 42.0005 29.6219C44.567 29.6219 47.0701 30.4197 49.1633 31.9049C51.2564 33.39 52.8362 35.4891 53.6839 37.9116C54.5316 40.3341 54.6053 42.9603 53.8948 45.4265C53.1843 47.8927 51.7248 50.0771 49.7182 51.6774C48.1784 52.9078 46.9505 54.6209 46.9505 56.589V56.8539M37.048 56.8539V61.8051C37.048 62.4617 37.3088 63.0913 37.7731 63.5556C38.2374 64.0199 38.8671 64.2807 39.5236 64.2807H44.4748C45.1314 64.2807 45.7611 64.0199 46.2254 63.5556C46.6896 63.0913 46.9505 62.4617 46.9505 61.8051V56.8539M37.048 56.8539H46.9505M61.8041 42.0002H64.2797M22.1944 42.0002H19.7188M41.9992 22.1953V19.7197M56.0038 27.9957L57.754 26.2454M27.9972 27.9957L26.2445 26.2454M41.9992 49.427V44.4758" stroke="#A3FFFC" stroke-width="4.05488" stroke-linecap="round" stroke-linejoin="round"/>
</svg>
