<svg width="571" height="278" viewBox="0 0 571 278" fill="none" xmlns="http://www.w3.org/2000/svg">
<g clip-path="url(#clip0_667_71)">
<path fill-rule="evenodd" clip-rule="evenodd" d="M0 70.7301V209.73L71.9602 277.385H500.646L570.146 207.27V70.7301L500.031 0H72.5752L0 70.7301Z" fill="#EFEFEF"/>
<path fill-rule="evenodd" clip-rule="evenodd" d="M8.82684 74.1461V204.314L75.4005 270.412H496.491L563.164 203.821V74.1448L498.976 6.96973H74.7608L8.82684 74.1461Z" fill="#182939"/>
<path fill-rule="evenodd" clip-rule="evenodd" d="M15.3761 75.6505V200.504L78.7257 263.854H492.65L556 199.889V78.7257L490.805 13.531H78.1106L15.3761 75.6505Z" fill="#62CEF2"/>
<path d="M78.7257 263.854H492.65L556 199.889V194.956H15.3761V200.504L78.7257 263.854Z" fill="#0076BD"/>
<path fill-rule="evenodd" clip-rule="evenodd" d="M31.9823 82.416V191.894L85.4911 247.863H485.27L540.009 190.664V80.5708L480.35 28.9071H95.9469L31.9823 82.416Z" fill="#32C6E0"/>
<path fill-rule="evenodd" clip-rule="evenodd" d="M85.4911 247.863H485.27L540.009 190.664V135.911H31.9823V191.894L85.4911 247.863Z" fill="#00A7D3"/>
<path fill-rule="evenodd" clip-rule="evenodd" d="M30.1371 193.535L51.0487 94.3072L93.2813 52.8939H474.609L521.763 96.7674L540.009 190.664L540.667 85.6314L480.35 34.4425L94.5114 32.392L35.878 84.4653L30.1371 193.535Z" fill="#7EE4F0"/>
<path fill-rule="evenodd" clip-rule="evenodd" d="M78.5215 15.1707L86.3129 30.7522L34.2383 80.3653L17.4279 77.9052L31.3685 86.9254L30.9589 191.893L37.9286 90.6157L92.4633 37.7219H479.121L532.034 88.9563L540.015 190.592L541.855 86.1062L554.156 77.4955L533.245 79.5461L485.271 31.5727L491.422 15.1719L475.43 30.3426L96.5632 29.1125L78.5215 15.1707Z" fill="white"/>
<path fill-rule="evenodd" clip-rule="evenodd" d="M31.7757 191.894L85.8996 240.687H482.809L540.008 190.664L486.089 251.349H84.2599L31.7757 191.894Z" fill="#47CCF5"/>
<path d="M122.385 119.275C123.858 122.278 124.595 125.622 124.595 129.305C124.595 132.988 123.858 136.332 122.385 139.335C120.912 142.282 119.013 144.633 116.69 146.39C111.987 150.017 107.113 151.83 102.07 151.83H91.445V161.435C91.445 162.738 91.3883 163.73 91.275 164.41C91.2183 165.033 90.9633 165.77 90.51 166.62C89.7167 168.15 87.5067 168.915 83.88 168.915C79.9133 168.915 77.59 167.867 76.91 165.77C76.57 164.807 76.4 163.333 76.4 161.35V114.175C76.4 112.872 76.4283 111.908 76.485 111.285C76.5983 110.605 76.8817 109.84 77.335 108.99C78.1283 107.46 80.3383 106.695 83.965 106.695H102.155C107.142 106.695 111.987 108.508 116.69 112.135C119.013 113.892 120.912 116.272 122.385 119.275ZM102.155 136.785C103.855 136.785 105.527 136.162 107.17 134.915C108.813 133.668 109.635 131.798 109.635 129.305C109.635 126.812 108.813 124.942 107.17 123.695C105.527 122.392 103.827 121.74 102.07 121.74H91.445V136.785H102.155ZM130.106 110.605C130.106 109.302 130.134 108.338 130.191 107.715C130.304 107.035 130.559 106.27 130.956 105.42C131.749 103.89 133.959 103.125 137.586 103.125C141.043 103.125 143.196 103.89 144.046 105.42C144.499 106.27 144.754 107.035 144.811 107.715C144.924 108.395 144.981 109.387 144.981 110.69V150.045C144.981 152.085 145.151 153.388 145.491 153.955C145.831 154.465 146.568 154.72 147.701 154.72C148.891 154.72 149.684 154.777 150.081 154.89C150.478 154.947 150.959 155.173 151.526 155.57C152.659 156.307 153.226 158.318 153.226 161.605C153.226 165.175 152.659 167.357 151.526 168.15C150.053 169.17 146.539 169.34 140.986 168.66C136.623 168.093 133.789 166.648 132.486 164.325C130.899 161.548 130.106 157.128 130.106 151.065V110.605ZM186.984 128.965C187.324 125.792 189.562 124.205 193.699 124.205C195.909 124.205 197.552 124.375 198.629 124.715C199.705 125.055 200.442 125.65 200.839 126.5C201.292 127.35 201.547 128.115 201.604 128.795C201.717 129.418 201.774 130.382 201.774 131.685V161.435C201.774 162.738 201.717 163.73 201.604 164.41C201.547 165.033 201.32 165.77 200.924 166.62C200.13 168.093 198.175 168.83 195.059 168.83C191.999 168.83 189.93 168.462 188.854 167.725C187.834 166.932 187.239 165.798 187.069 164.325C184.972 167.328 181.459 168.83 176.529 168.83C171.655 168.83 167.122 166.592 162.929 162.115C158.735 157.638 156.639 152.453 156.639 146.56C156.639 140.61 158.735 135.425 162.929 131.005C167.179 126.528 171.825 124.29 176.869 124.29C178.795 124.29 180.552 124.63 182.139 125.31C183.725 125.99 184.83 126.642 185.454 127.265C186.077 127.832 186.587 128.398 186.984 128.965ZM171.514 146.645C171.514 148.515 172.25 150.215 173.724 151.745C175.197 153.218 176.982 153.955 179.079 153.955C181.175 153.955 182.904 153.19 184.264 151.66C185.68 150.13 186.389 148.458 186.389 146.645C186.389 144.775 185.709 143.047 184.349 141.46C183.045 139.873 181.26 139.08 178.994 139.08C176.784 139.08 174.97 139.873 173.554 141.46C172.194 143.047 171.514 144.775 171.514 146.645ZM248.538 124.715C251.882 126.188 253.553 127.973 253.553 130.07C253.553 131.09 253.327 132.053 252.873 132.96C252.42 133.867 252.193 134.348 252.193 134.405L229.923 184.215C229.47 185.292 229.073 186.113 228.733 186.68C228.45 187.247 227.968 187.785 227.288 188.295C226.608 188.805 225.758 189.06 224.738 189.06C223.718 189.06 222.217 188.635 220.233 187.785C216.89 186.312 215.218 184.555 215.218 182.515C215.218 181.155 217.938 174.667 223.378 163.05L206.463 134.575C205.33 132.705 204.763 131.317 204.763 130.41C204.763 128.597 206.293 126.783 209.353 124.97C211.28 123.837 212.782 123.27 213.858 123.27C214.935 123.27 215.813 123.497 216.493 123.95C217.173 124.403 217.655 124.885 217.938 125.395C218.278 125.848 219.837 128.483 222.613 133.3C225.447 138.06 228.138 142.508 230.688 146.645C230.972 145.738 232.502 142.253 235.278 136.19C238.055 130.07 239.528 126.812 239.698 126.415C239.925 126.018 240.265 125.537 240.718 124.97C241.455 124.007 242.475 123.525 243.778 123.525C245.138 123.525 246.725 123.922 248.538 124.715ZM315.641 111.115L338.591 158.545C339.554 160.472 340.036 161.917 340.036 162.88C340.036 164.92 338.393 166.762 335.106 168.405C333.179 169.368 331.649 169.85 330.516 169.85C329.439 169.85 328.533 169.595 327.796 169.085C327.116 168.575 326.606 168.037 326.266 167.47C325.983 166.903 325.558 166.053 324.991 164.92L320.571 155.74H297.026L292.606 164.92C292.039 166.053 291.586 166.875 291.246 167.385C290.963 167.895 290.453 168.433 289.716 169C289.036 169.51 288.129 169.765 286.996 169.765C285.919 169.765 284.418 169.283 282.491 168.32C279.204 166.733 277.561 164.92 277.561 162.88C277.561 161.917 278.043 160.472 279.006 158.545L301.956 111.03C302.579 109.727 303.514 108.678 304.761 107.885C306.064 107.092 307.424 106.695 308.841 106.695C311.901 106.695 314.168 108.168 315.641 111.115ZM308.756 131.515L303.146 143.16H314.451L308.756 131.515ZM369.668 163.39C367.515 166.223 364.086 167.64 359.383 167.64C354.68 167.64 350.26 165.487 346.123 161.18C342.043 156.817 340.003 151.745 340.003 145.965C340.003 140.185 342.071 135.113 346.208 130.75C350.345 126.387 354.878 124.205 359.808 124.205C361.735 124.205 363.491 124.573 365.078 125.31C366.665 125.99 367.741 126.642 368.308 127.265C368.931 127.832 369.413 128.37 369.753 128.88C369.923 127.293 370.49 126.103 371.453 125.31C372.473 124.46 374.088 124.035 376.298 124.035C378.508 124.035 380.123 124.205 381.143 124.545C382.163 124.885 382.871 125.48 383.268 126.33C383.721 127.123 383.976 127.832 384.033 128.455C384.146 129.078 384.203 130.042 384.203 131.345V166.535C384.203 173.052 381.936 178.293 377.403 182.26C372.87 186.283 367.77 188.295 362.103 188.295C357.796 188.295 353.688 187.247 349.778 185.15C345.868 183.053 343.913 181.155 343.913 179.455C343.913 177.245 344.763 175.29 346.463 173.59C347.54 172.4 348.361 171.578 348.928 171.125C349.551 170.672 350.26 170.445 351.053 170.445C351.846 170.445 352.668 170.785 353.518 171.465C356.238 173.562 359.185 174.61 362.358 174.61C364.511 174.61 366.268 173.76 367.628 172.06C368.988 170.36 369.668 168.32 369.668 165.94V163.39ZM354.538 146.05C354.538 147.863 355.246 149.507 356.663 150.98C358.136 152.453 359.893 153.19 361.933 153.19C364.03 153.19 365.758 152.453 367.118 150.98C368.478 149.45 369.158 147.807 369.158 146.05C369.158 144.237 368.506 142.565 367.203 141.035C365.9 139.448 364.143 138.655 361.933 138.655C359.723 138.655 357.938 139.42 356.578 140.95C355.218 142.48 354.538 144.18 354.538 146.05ZM420.07 128.965C420.41 125.792 422.648 124.205 426.785 124.205C428.995 124.205 430.638 124.375 431.715 124.715C432.791 125.055 433.528 125.65 433.925 126.5C434.378 127.35 434.633 128.115 434.69 128.795C434.803 129.418 434.86 130.382 434.86 131.685V161.435C434.86 162.738 434.803 163.73 434.69 164.41C434.633 165.033 434.406 165.77 434.01 166.62C433.216 168.093 431.261 168.83 428.145 168.83C425.085 168.83 423.016 168.462 421.94 167.725C420.92 166.932 420.325 165.798 420.155 164.325C418.058 167.328 414.545 168.83 409.615 168.83C404.741 168.83 400.208 166.592 396.015 162.115C391.821 157.638 389.725 152.453 389.725 146.56C389.725 140.61 391.821 135.425 396.015 131.005C400.265 126.528 404.911 124.29 409.955 124.29C411.881 124.29 413.638 124.63 415.225 125.31C416.811 125.99 417.916 126.642 418.54 127.265C419.163 127.832 419.673 128.398 420.07 128.965ZM404.6 146.645C404.6 148.515 405.336 150.215 406.81 151.745C408.283 153.218 410.068 153.955 412.165 153.955C414.261 153.955 415.99 153.19 417.35 151.66C418.766 150.13 419.475 148.458 419.475 146.645C419.475 144.775 418.795 143.047 417.435 141.46C416.131 139.873 414.346 139.08 412.08 139.08C409.87 139.08 408.056 139.873 406.64 141.46C405.28 143.047 404.6 144.775 404.6 146.645ZM441.634 131.685C441.634 130.382 441.663 129.418 441.719 128.795C441.833 128.115 442.088 127.35 442.484 126.5C443.278 125.027 445.488 124.29 449.114 124.29C451.834 124.29 453.761 124.772 454.894 125.735C455.858 126.528 456.368 127.747 456.424 129.39C456.481 129.957 456.509 130.778 456.509 131.855V161.605C456.509 162.908 456.453 163.9 456.339 164.58C456.283 165.203 456.028 165.94 455.574 166.79C454.838 168.263 452.656 169 449.029 169C445.459 169 443.278 168.235 442.484 166.705C442.088 165.855 441.833 165.118 441.719 164.495C441.663 163.872 441.634 162.88 441.634 161.52V131.685ZM455.574 115.96C455.178 116.753 454.441 117.32 453.364 117.66C452.288 118 450.843 118.17 449.029 118.17C447.273 118.17 445.856 118 444.779 117.66C443.703 117.32 442.938 116.725 442.484 115.875C442.088 115.025 441.833 114.288 441.719 113.665C441.663 112.985 441.634 111.993 441.634 110.69C441.634 109.387 441.663 108.423 441.719 107.8C441.833 107.12 442.088 106.383 442.484 105.59C443.278 104.06 445.488 103.295 449.114 103.295C452.684 103.295 454.838 104.06 455.574 105.59C456.028 106.44 456.283 107.205 456.339 107.885C456.453 108.508 456.509 109.472 456.509 110.775C456.509 112.078 456.453 113.07 456.339 113.75C456.283 114.373 456.028 115.11 455.574 115.96ZM488.204 124.205C493.871 124.205 498.574 126.387 502.314 130.75C506.111 135.057 508.009 140.327 508.009 146.56V161.52C508.009 162.823 507.953 163.815 507.839 164.495C507.783 165.118 507.556 165.827 507.159 166.62C506.366 168.15 504.156 168.915 500.529 168.915C496.506 168.915 494.183 167.867 493.559 165.77C493.219 164.807 493.049 163.362 493.049 161.435V146.475C493.049 144.152 492.369 142.338 491.009 141.035C489.706 139.732 487.921 139.08 485.654 139.08C483.444 139.08 481.631 139.76 480.214 141.12C478.854 142.48 478.174 144.265 478.174 146.475V161.52C478.174 162.823 478.118 163.815 478.004 164.495C477.948 165.118 477.693 165.827 477.239 166.62C476.503 168.15 474.321 168.915 470.694 168.915C467.124 168.915 464.943 168.15 464.149 166.62C463.753 165.77 463.498 165.033 463.384 164.41C463.328 163.73 463.299 162.738 463.299 161.435V131.345C463.299 130.098 463.328 129.163 463.384 128.54C463.498 127.86 463.781 127.123 464.234 126.33C465.028 124.913 467.209 124.205 470.779 124.205C474.236 124.205 476.361 124.857 477.154 126.16C477.721 127.123 478.004 128.285 478.004 129.645C478.231 129.248 478.741 128.682 479.534 127.945C480.328 127.208 481.093 126.613 481.829 126.16C483.756 124.857 485.881 124.205 488.204 124.205Z" fill="#0060B4"/>
<path d="M126.385 123.275C127.858 126.278 128.595 129.622 128.595 133.305C128.595 136.988 127.858 140.332 126.385 143.335C124.912 146.282 123.013 148.633 120.69 150.39C115.987 154.017 111.113 155.83 106.07 155.83H95.445V165.435C95.445 166.738 95.3883 167.73 95.275 168.41C95.2183 169.033 94.9633 169.77 94.51 170.62C93.7167 172.15 91.5067 172.915 87.88 172.915C83.9133 172.915 81.59 171.867 80.91 169.77C80.57 168.807 80.4 167.333 80.4 165.35V118.175C80.4 116.872 80.4283 115.908 80.485 115.285C80.5983 114.605 80.8817 113.84 81.335 112.99C82.1283 111.46 84.3383 110.695 87.965 110.695H106.155C111.142 110.695 115.987 112.508 120.69 116.135C123.013 117.892 124.912 120.272 126.385 123.275ZM106.155 140.785C107.855 140.785 109.527 140.162 111.17 138.915C112.813 137.668 113.635 135.798 113.635 133.305C113.635 130.812 112.813 128.942 111.17 127.695C109.527 126.392 107.827 125.74 106.07 125.74H95.445V140.785H106.155ZM134.106 114.605C134.106 113.302 134.134 112.338 134.191 111.715C134.304 111.035 134.559 110.27 134.956 109.42C135.749 107.89 137.959 107.125 141.586 107.125C145.043 107.125 147.196 107.89 148.046 109.42C148.499 110.27 148.754 111.035 148.811 111.715C148.924 112.395 148.981 113.387 148.981 114.69V154.045C148.981 156.085 149.151 157.388 149.491 157.955C149.831 158.465 150.568 158.72 151.701 158.72C152.891 158.72 153.684 158.777 154.081 158.89C154.478 158.947 154.959 159.173 155.526 159.57C156.659 160.307 157.226 162.318 157.226 165.605C157.226 169.175 156.659 171.357 155.526 172.15C154.053 173.17 150.539 173.34 144.986 172.66C140.623 172.093 137.789 170.648 136.486 168.325C134.899 165.548 134.106 161.128 134.106 155.065V114.605ZM190.984 132.965C191.324 129.792 193.562 128.205 197.699 128.205C199.909 128.205 201.552 128.375 202.629 128.715C203.705 129.055 204.442 129.65 204.839 130.5C205.292 131.35 205.547 132.115 205.604 132.795C205.717 133.418 205.774 134.382 205.774 135.685V165.435C205.774 166.738 205.717 167.73 205.604 168.41C205.547 169.033 205.32 169.77 204.924 170.62C204.13 172.093 202.175 172.83 199.059 172.83C195.999 172.83 193.93 172.462 192.854 171.725C191.834 170.932 191.239 169.798 191.069 168.325C188.972 171.328 185.459 172.83 180.529 172.83C175.655 172.83 171.122 170.592 166.929 166.115C162.735 161.638 160.639 156.453 160.639 150.56C160.639 144.61 162.735 139.425 166.929 135.005C171.179 130.528 175.825 128.29 180.869 128.29C182.795 128.29 184.552 128.63 186.139 129.31C187.725 129.99 188.83 130.642 189.454 131.265C190.077 131.832 190.587 132.398 190.984 132.965ZM175.514 150.645C175.514 152.515 176.25 154.215 177.724 155.745C179.197 157.218 180.982 157.955 183.079 157.955C185.175 157.955 186.904 157.19 188.264 155.66C189.68 154.13 190.389 152.458 190.389 150.645C190.389 148.775 189.709 147.047 188.349 145.46C187.045 143.873 185.26 143.08 182.994 143.08C180.784 143.08 178.97 143.873 177.554 145.46C176.194 147.047 175.514 148.775 175.514 150.645ZM252.538 128.715C255.882 130.188 257.553 131.973 257.553 134.07C257.553 135.09 257.327 136.053 256.873 136.96C256.42 137.867 256.193 138.348 256.193 138.405L233.923 188.215C233.47 189.292 233.073 190.113 232.733 190.68C232.45 191.247 231.968 191.785 231.288 192.295C230.608 192.805 229.758 193.06 228.738 193.06C227.718 193.06 226.217 192.635 224.233 191.785C220.89 190.312 219.218 188.555 219.218 186.515C219.218 185.155 221.938 178.667 227.378 167.05L210.463 138.575C209.33 136.705 208.763 135.317 208.763 134.41C208.763 132.597 210.293 130.783 213.353 128.97C215.28 127.837 216.782 127.27 217.858 127.27C218.935 127.27 219.813 127.497 220.493 127.95C221.173 128.403 221.655 128.885 221.938 129.395C222.278 129.848 223.837 132.483 226.613 137.3C229.447 142.06 232.138 146.508 234.688 150.645C234.972 149.738 236.502 146.253 239.278 140.19C242.055 134.07 243.528 130.812 243.698 130.415C243.925 130.018 244.265 129.537 244.718 128.97C245.455 128.007 246.475 127.525 247.778 127.525C249.138 127.525 250.725 127.922 252.538 128.715ZM319.641 115.115L342.591 162.545C343.554 164.472 344.036 165.917 344.036 166.88C344.036 168.92 342.393 170.762 339.106 172.405C337.179 173.368 335.649 173.85 334.516 173.85C333.439 173.85 332.533 173.595 331.796 173.085C331.116 172.575 330.606 172.037 330.266 171.47C329.983 170.903 329.558 170.053 328.991 168.92L324.571 159.74H301.026L296.606 168.92C296.039 170.053 295.586 170.875 295.246 171.385C294.963 171.895 294.453 172.433 293.716 173C293.036 173.51 292.129 173.765 290.996 173.765C289.919 173.765 288.418 173.283 286.491 172.32C283.204 170.733 281.561 168.92 281.561 166.88C281.561 165.917 282.043 164.472 283.006 162.545L305.956 115.03C306.579 113.727 307.514 112.678 308.761 111.885C310.064 111.092 311.424 110.695 312.841 110.695C315.901 110.695 318.168 112.168 319.641 115.115ZM312.756 135.515L307.146 147.16H318.451L312.756 135.515ZM373.668 167.39C371.515 170.223 368.086 171.64 363.383 171.64C358.68 171.64 354.26 169.487 350.123 165.18C346.043 160.817 344.003 155.745 344.003 149.965C344.003 144.185 346.071 139.113 350.208 134.75C354.345 130.387 358.878 128.205 363.808 128.205C365.735 128.205 367.491 128.573 369.078 129.31C370.665 129.99 371.741 130.642 372.308 131.265C372.931 131.832 373.413 132.37 373.753 132.88C373.923 131.293 374.49 130.103 375.453 129.31C376.473 128.46 378.088 128.035 380.298 128.035C382.508 128.035 384.123 128.205 385.143 128.545C386.163 128.885 386.871 129.48 387.268 130.33C387.721 131.123 387.976 131.832 388.033 132.455C388.146 133.078 388.203 134.042 388.203 135.345V170.535C388.203 177.052 385.936 182.293 381.403 186.26C376.87 190.283 371.77 192.295 366.103 192.295C361.796 192.295 357.688 191.247 353.778 189.15C349.868 187.053 347.913 185.155 347.913 183.455C347.913 181.245 348.763 179.29 350.463 177.59C351.54 176.4 352.361 175.578 352.928 175.125C353.551 174.672 354.26 174.445 355.053 174.445C355.846 174.445 356.668 174.785 357.518 175.465C360.238 177.562 363.185 178.61 366.358 178.61C368.511 178.61 370.268 177.76 371.628 176.06C372.988 174.36 373.668 172.32 373.668 169.94V167.39ZM358.538 150.05C358.538 151.863 359.246 153.507 360.663 154.98C362.136 156.453 363.893 157.19 365.933 157.19C368.03 157.19 369.758 156.453 371.118 154.98C372.478 153.45 373.158 151.807 373.158 150.05C373.158 148.237 372.506 146.565 371.203 145.035C369.9 143.448 368.143 142.655 365.933 142.655C363.723 142.655 361.938 143.42 360.578 144.95C359.218 146.48 358.538 148.18 358.538 150.05ZM424.07 132.965C424.41 129.792 426.648 128.205 430.785 128.205C432.995 128.205 434.638 128.375 435.715 128.715C436.791 129.055 437.528 129.65 437.925 130.5C438.378 131.35 438.633 132.115 438.69 132.795C438.803 133.418 438.86 134.382 438.86 135.685V165.435C438.86 166.738 438.803 167.73 438.69 168.41C438.633 169.033 438.406 169.77 438.01 170.62C437.216 172.093 435.261 172.83 432.145 172.83C429.085 172.83 427.016 172.462 425.94 171.725C424.92 170.932 424.325 169.798 424.155 168.325C422.058 171.328 418.545 172.83 413.615 172.83C408.741 172.83 404.208 170.592 400.015 166.115C395.821 161.638 393.725 156.453 393.725 150.56C393.725 144.61 395.821 139.425 400.015 135.005C404.265 130.528 408.911 128.29 413.955 128.29C415.881 128.29 417.638 128.63 419.225 129.31C420.811 129.99 421.916 130.642 422.54 131.265C423.163 131.832 423.673 132.398 424.07 132.965ZM408.6 150.645C408.6 152.515 409.336 154.215 410.81 155.745C412.283 157.218 414.068 157.955 416.165 157.955C418.261 157.955 419.99 157.19 421.35 155.66C422.766 154.13 423.475 152.458 423.475 150.645C423.475 148.775 422.795 147.047 421.435 145.46C420.131 143.873 418.346 143.08 416.08 143.08C413.87 143.08 412.056 143.873 410.64 145.46C409.28 147.047 408.6 148.775 408.6 150.645ZM445.634 135.685C445.634 134.382 445.663 133.418 445.719 132.795C445.833 132.115 446.088 131.35 446.484 130.5C447.278 129.027 449.488 128.29 453.114 128.29C455.834 128.29 457.761 128.772 458.894 129.735C459.858 130.528 460.368 131.747 460.424 133.39C460.481 133.957 460.509 134.778 460.509 135.855V165.605C460.509 166.908 460.453 167.9 460.339 168.58C460.283 169.203 460.028 169.94 459.574 170.79C458.838 172.263 456.656 173 453.029 173C449.459 173 447.278 172.235 446.484 170.705C446.088 169.855 445.833 169.118 445.719 168.495C445.663 167.872 445.634 166.88 445.634 165.52V135.685ZM459.574 119.96C459.178 120.753 458.441 121.32 457.364 121.66C456.288 122 454.843 122.17 453.029 122.17C451.273 122.17 449.856 122 448.779 121.66C447.703 121.32 446.938 120.725 446.484 119.875C446.088 119.025 445.833 118.288 445.719 117.665C445.663 116.985 445.634 115.993 445.634 114.69C445.634 113.387 445.663 112.423 445.719 111.8C445.833 111.12 446.088 110.383 446.484 109.59C447.278 108.06 449.488 107.295 453.114 107.295C456.684 107.295 458.838 108.06 459.574 109.59C460.028 110.44 460.283 111.205 460.339 111.885C460.453 112.508 460.509 113.472 460.509 114.775C460.509 116.078 460.453 117.07 460.339 117.75C460.283 118.373 460.028 119.11 459.574 119.96ZM492.204 128.205C497.871 128.205 502.574 130.387 506.314 134.75C510.111 139.057 512.009 144.327 512.009 150.56V165.52C512.009 166.823 511.953 167.815 511.839 168.495C511.783 169.118 511.556 169.827 511.159 170.62C510.366 172.15 508.156 172.915 504.529 172.915C500.506 172.915 498.183 171.867 497.559 169.77C497.219 168.807 497.049 167.362 497.049 165.435V150.475C497.049 148.152 496.369 146.338 495.009 145.035C493.706 143.732 491.921 143.08 489.654 143.08C487.444 143.08 485.631 143.76 484.214 145.12C482.854 146.48 482.174 148.265 482.174 150.475V165.52C482.174 166.823 482.118 167.815 482.004 168.495C481.948 169.118 481.693 169.827 481.239 170.62C480.503 172.15 478.321 172.915 474.694 172.915C471.124 172.915 468.943 172.15 468.149 170.62C467.753 169.77 467.498 169.033 467.384 168.41C467.328 167.73 467.299 166.738 467.299 165.435V135.345C467.299 134.098 467.328 133.163 467.384 132.54C467.498 131.86 467.781 131.123 468.234 130.33C469.028 128.913 471.209 128.205 474.779 128.205C478.236 128.205 480.361 128.857 481.154 130.16C481.721 131.123 482.004 132.285 482.004 133.645C482.231 133.248 482.741 132.682 483.534 131.945C484.328 131.208 485.093 130.613 485.829 130.16C487.756 128.857 489.881 128.205 492.204 128.205Z" fill="white"/>
</g>
<defs>
<clipPath id="clip0_667_71">
<rect width="570.761" height="278" fill="white"/>
</clipPath>
</defs>
</svg>
