<svg width="464" height="226" viewBox="0 0 464 226" fill="none" xmlns="http://www.w3.org/2000/svg">
<path fill-rule="evenodd" clip-rule="evenodd" d="M0 57.5V170.5L58.5 225.5H407L463.5 168.5V57.5L406.5 0H59L0 57.5Z" fill="#EFEFEF"/>
<path fill-rule="evenodd" clip-rule="evenodd" d="M7.17578 60.277V166.097L61.2968 219.831H403.622L457.824 165.696V60.276L405.642 5.66602H60.7768L7.17578 60.277Z" fill="#182939"/>
<path fill-rule="evenodd" clip-rule="evenodd" d="M12.5 61.5V163L64 214.5H400.5L452 162.5V64L399 11H63.5L12.5 61.5Z" fill="#62CEF2"/>
<path d="M64 214.5H400.5L452 162.5V158.489H12.5V163L64 214.5Z" fill="#0076BD"/>
<path fill-rule="evenodd" clip-rule="evenodd" d="M26 67V156L69.5 201.5H394.5L439 155V65.5L390.5 23.5H78L26 67Z" fill="#32C6E0"/>
<path fill-rule="evenodd" clip-rule="evenodd" d="M69.5 201.5H394.5L439 155V110.489H26V156L69.5 201.5Z" fill="#00A7D3"/>
<path fill-rule="evenodd" clip-rule="evenodd" d="M24.5 157.334L41.5 76.667L75.833 43H385.833L424.167 78.667L439 155L439.535 69.614L390.5 28L76.833 26.333L29.167 68.666L24.5 157.334Z" fill="#7EE4F0"/>
<path fill-rule="evenodd" clip-rule="evenodd" d="M63.834 12.333L70.168 25L27.834 65.333L14.168 63.333L25.501 70.666L25.168 155.999L30.834 73.666L75.168 30.666H389.501L432.517 72.317L439.005 154.942L440.501 70L450.501 63L433.501 64.667L394.501 25.667L399.501 12.334L386.501 24.667L78.501 23.667L63.834 12.333Z" fill="white"/>
<path fill-rule="evenodd" clip-rule="evenodd" d="M25.832 156L69.832 195.666H392.499L438.999 155L395.166 204.334H68.499L25.832 156Z" fill="#47CCF5"/>
<path d="M89.1304 160.073C86.7054 160.073 84.6624 159.249 83.0604 157.625C81.4594 156.003 80.6484 154.034 80.6484 151.77V135.039C80.6484 128.847 81.0524 119.574 81.8484 107.476C82.6034 95.1811 83.0074 85.8911 83.0464 79.8641C83.0854 69.5651 85.9894 64.3431 91.6774 64.3431C91.8864 64.3431 92.0994 64.3501 92.3164 64.3641C93.6954 64.0091 95.5954 63.7391 97.9634 63.5611C100.362 63.3811 103.322 63.2891 106.76 63.2891C114.682 63.2891 122.221 65.8891 129.165 71.0161C136.918 76.7811 140.849 83.9151 140.849 92.2211C140.849 102.597 136.677 110.962 128.447 117.083C121.184 122.45 112.415 125.17 102.383 125.17C101.727 125.17 100.254 125.052 97.8874 124.809C97.6654 130.422 97.5524 139.485 97.5524 151.768C97.5524 154.029 96.7514 155.999 95.1734 157.62C93.5904 159.249 91.5574 160.073 89.1304 160.073ZM98.9094 108.233C100.621 108.494 101.789 108.627 102.384 108.627C108.471 108.627 113.585 107.17 117.585 104.296C121.806 101.265 123.945 97.2031 123.945 92.2231C123.945 89.0471 121.955 86.1611 118.029 83.6451C114.181 81.1571 109.926 79.8961 105.382 79.8961C104.106 79.8961 102.981 79.9061 102.005 79.9261C101.277 79.9411 100.629 79.9731 100.071 80.0221C100.068 81.8891 100.048 84.5381 100.011 87.9711C99.9324 92.3261 99.5614 99.1411 98.9094 108.233Z" fill="#0060B4" stroke="#00A0E9" stroke-width="2" stroke-miterlimit="10"/>
<path d="M102.384 124.605C101.704 124.605 100.025 124.465 97.3469 124.185C97.1069 129.783 96.9868 138.977 96.9868 151.77C96.9868 153.89 96.2469 155.708 94.7679 157.227C93.2889 158.747 91.4099 159.506 89.1309 159.506C86.8519 159.506 84.9639 158.746 83.4639 157.227C81.9649 155.708 81.2148 153.89 81.2148 151.77V135.039C81.2148 128.843 81.6138 119.667 82.4138 107.514C83.1728 95.1614 83.5729 85.9474 83.6129 79.8694C83.6519 69.4754 86.5709 64.4984 92.3679 64.9374C93.7269 64.5774 95.6059 64.3074 98.0049 64.1274C100.404 63.9474 103.321 63.8574 106.76 63.8574C114.596 63.8574 121.952 66.3964 128.828 71.4734C136.463 77.1504 140.282 84.0664 140.282 92.2224C140.282 102.457 136.224 110.593 128.109 116.629C120.914 121.947 112.339 124.605 102.384 124.605ZM105.383 79.3304C104.103 79.3304 102.974 79.3404 101.995 79.3604C101.015 79.3814 100.185 79.4304 99.5059 79.5104C99.5059 81.3904 99.4849 84.2084 99.4459 87.9664C99.3649 92.4044 98.9859 99.3204 98.3069 108.715C100.346 109.036 101.705 109.195 102.385 109.195C108.622 109.195 113.799 107.716 117.917 104.757C122.314 101.599 124.513 97.4214 124.513 92.2244C124.513 88.8274 122.453 85.8084 118.336 83.1694C114.378 80.6104 110.06 79.3304 105.383 79.3304Z" fill="#0060B4" stroke="#00A0E9" stroke-width="2" stroke-miterlimit="10"/>
<path d="M162.618 164.212C152.493 164.212 147.359 159.683 147.359 150.751C147.359 150.692 147.368 150.636 147.384 150.583C147.472 149.596 147.867 143.254 148.559 131.708C149.593 114.444 150.117 94.9663 150.117 73.8133C150.117 71.3913 150.969 69.2993 152.649 67.5983C154.332 65.8953 156.475 65.0312 159.019 65.0312C161.562 65.0312 163.714 65.8942 165.416 67.5952C167.118 69.2982 167.981 71.3903 167.981 73.8133C167.981 95.0363 167.436 114.86 166.361 132.735C166.011 135.85 165.642 140.575 165.259 146.813C174.553 146.566 186.557 144.24 200.951 139.894C201.921 139.6 202.864 139.45 203.754 139.45C206.435 139.45 208.638 140.446 210.303 142.409C211.785 144.146 212.537 146.126 212.537 148.292C212.537 151.958 210.669 154.654 206.985 156.306C202.248 158.394 194.837 160.283 184.958 161.924C175.936 163.442 168.419 164.212 162.618 164.212Z" fill="#0060B4" stroke="#00A0E9" stroke-width="2" stroke-miterlimit="10"/>
<path d="M206.758 155.789C202.04 157.868 194.744 159.726 184.87 161.365C175.834 162.885 168.418 163.644 162.622 163.644C152.827 163.644 147.93 159.346 147.93 150.751C147.93 151.431 148.329 145.094 149.129 131.741C150.168 114.391 150.688 95.0807 150.688 73.8117C150.688 71.5327 151.477 69.5947 153.057 67.9947C154.636 66.3957 156.625 65.5967 159.024 65.5967C161.423 65.5967 163.421 66.3967 165.02 67.9947C166.619 69.5947 167.419 71.5327 167.419 73.8117C167.419 95.1207 166.879 114.75 165.8 132.7C165.44 135.899 165.06 140.796 164.661 147.392C174.136 147.233 186.288 144.914 201.121 140.436C202.04 140.157 202.92 140.016 203.76 140.016C206.279 140.016 208.318 140.936 209.877 142.775C211.276 144.415 211.976 146.253 211.976 148.292C211.975 151.731 210.236 154.229 206.758 155.789Z" fill="#0060B4" stroke="#00A0E9" stroke-width="2" stroke-miterlimit="10"/>
<path d="M288.081 160.432C284.652 160.302 281.371 156.542 278.047 148.939C275.983 144.348 274.179 138.997 272.683 133.035C269.686 133.452 264.965 133.872 258.634 134.287C252.552 134.711 247.795 135.215 244.487 135.785C242.632 140.178 239.439 146.77 234.993 155.389C233.112 158.47 230.487 160.014 227.173 160.014C224.845 160.014 222.724 159.212 220.869 157.631C218.986 156.026 218.031 153.954 218.031 151.472C218.031 149.338 220.876 142.545 226.728 130.708C226.208 129.477 225.986 128.299 226.068 127.203C226.245 125.071 228.264 123.413 232.072 122.268C237.693 112.539 244.035 102.307 250.926 91.8521C264.514 71.2521 268.245 68.8701 269.869 68.8701C274.531 68.8701 277.681 71.6931 279.23 77.2611C280.036 81.5641 281.307 88.0381 283.017 96.5511C285.443 108.005 288.448 121.297 291.949 136.05C292.219 137.132 293.238 139.767 294.977 143.875C296.46 147.418 297.181 150.021 297.181 151.832C297.181 154.309 296.24 156.408 294.384 158.071C292.631 159.643 290.624 160.44 288.42 160.44C288.309 160.439 288.195 160.437 288.081 160.432ZM265.472 99.9131C262.572 104.884 258.793 111.297 253.969 119.435C255.751 119.139 258.175 118.893 261.199 118.703C265.007 118.466 267.632 118.269 269.023 118.119C268.136 113.336 266.943 107.22 265.472 99.9131Z" fill="#0060B4" stroke="#00A0E9" stroke-width="2" stroke-miterlimit="10"/>
<path d="M288.1 159.866C284.941 159.746 281.763 156.028 278.565 148.712C276.445 143.995 274.626 138.558 273.108 132.401C270.148 132.841 265.312 133.281 258.596 133.72C252.279 134.16 247.442 134.68 244.084 135.279C242.245 139.677 239.046 146.293 234.489 155.128C232.729 158.007 230.291 159.445 227.173 159.445C224.974 159.445 222.995 158.696 221.237 157.197C219.477 155.697 218.598 153.789 218.598 151.47C218.598 149.431 221.516 142.515 227.353 130.721C226.792 129.482 226.553 128.322 226.633 127.243C226.792 125.324 228.732 123.825 232.45 122.745C238.126 112.91 244.444 102.716 251.4 92.1606C261.394 77.0096 267.551 69.4326 269.87 69.4326C274.267 69.4326 277.205 72.0916 278.685 77.4086C279.484 81.6866 280.744 88.1036 282.463 96.6576C284.901 108.172 287.88 121.345 291.398 136.176C291.677 137.296 292.696 139.934 294.456 144.092C295.895 147.531 296.615 150.109 296.615 151.828C296.615 154.147 295.746 156.086 294.007 157.645C292.268 159.207 290.299 159.946 288.1 159.866ZM265.732 98.3396C262.614 103.697 258.316 110.993 252.839 120.228C254.638 119.829 257.436 119.508 261.234 119.269C265.711 118.99 268.53 118.769 269.69 118.609C268.731 113.412 267.412 106.655 265.732 98.3396Z" fill="#0060B4" stroke="#00A0E9" stroke-width="2" stroke-miterlimit="10"/>
<path d="M333.047 162.831C330.718 162.831 328.637 162.06 326.861 160.537C324.899 158.83 323.905 156.689 323.905 154.17C323.905 152.85 325.198 148.851 336.335 129.491C333.281 125.074 328.889 118.371 323.275 109.559C318.971 102.944 312.573 92.833 304.262 79.511C303.406 78.057 302.977 76.528 302.977 74.953C302.977 72.476 303.949 70.356 305.866 68.653C307.646 67.085 309.749 66.291 312.119 66.291C314.925 66.291 317.494 67.714 319.757 70.519L324.294 77.7711C324.582 78.2651 328.02 84.102 334.616 95.293C338.507 101.99 342.016 107.43 345.06 111.481C348.064 105.395 352.34 96.342 357.78 84.55C358.974 81.803 360.772 77.627 363.171 72.031C364.778 68.222 367.577 66.29 371.488 66.29C373.816 66.29 375.897 67.0621 377.674 68.5851C379.635 70.2481 380.63 72.371 380.63 74.893C380.63 76.351 379.474 79.434 377.095 84.316C375.068 88.488 370.935 97.6421 364.81 111.522C359.708 123.162 355.302 132.417 351.717 139.028C345.416 150.661 342.133 156.656 341.68 157.356C339.212 160.992 336.31 162.831 333.047 162.831Z" fill="#0060B4" stroke="#00A0E9" stroke-width="2" stroke-miterlimit="10"/>
<path d="M376.58 84.0674C374.541 88.2654 370.443 97.3404 364.287 111.292C359.169 122.966 354.812 132.122 351.214 138.757C344.977 150.271 341.639 156.367 341.199 157.047C338.84 160.526 336.121 162.264 333.043 162.264C330.844 162.264 328.905 161.545 327.226 160.106C325.387 158.506 324.468 156.529 324.468 154.17C324.468 152.211 328.645 143.975 337.001 129.463C333.922 125.025 329.505 118.289 323.748 109.254C319.431 102.618 313.094 92.6044 304.738 79.2104C303.939 77.8524 303.539 76.4324 303.539 74.9524C303.539 72.6344 304.438 70.6754 306.238 69.0764C307.917 67.5984 309.875 66.8574 312.115 66.8574C314.754 66.8574 317.153 68.1974 319.311 70.8754L323.808 78.0714C324.087 78.5504 327.526 84.3884 334.123 95.5814C338.28 102.738 341.958 108.394 345.157 112.552C348.195 106.435 352.572 97.1804 358.29 84.7874C359.489 82.0284 361.288 77.8514 363.687 72.2544C365.206 68.6564 367.804 66.8574 371.483 66.8574C373.681 66.8574 375.621 67.5764 377.3 69.0164C379.138 70.5754 380.058 72.5344 380.058 74.8934C380.058 76.2524 378.898 79.3104 376.58 84.0674Z" fill="#0060B4" stroke="#00A0E9" stroke-width="2" stroke-miterlimit="10"/>
<path d="M105.849 135.79C105.169 135.79 103.49 135.65 100.811 135.37C100.571 140.967 100.452 150.162 100.452 162.955C100.452 165.074 99.712 166.893 98.2328 168.412C96.7536 169.932 94.8746 170.691 92.5958 170.691C90.317 170.691 88.4181 169.932 86.8989 168.412C85.4197 166.893 84.6801 165.074 84.6801 162.955V146.224C84.6801 140.028 85.0799 130.853 85.8794 118.699C86.639 106.346 87.0388 97.1309 87.0788 91.0542C87.1188 80.6599 90.0372 75.6825 95.8341 76.1223C97.1933 75.7625 99.0723 75.5026 101.471 75.3427C103.87 75.1428 106.788 75.0429 110.226 75.0429C118.062 75.0429 125.418 77.5815 132.294 82.6588C139.93 88.3357 143.748 95.252 143.748 103.408C143.748 113.642 139.69 121.778 131.575 127.814C124.379 133.131 115.803 135.79 105.849 135.79ZM108.847 90.5145C107.568 90.5145 106.428 90.5345 105.429 90.5745C104.469 90.5745 103.65 90.6145 102.97 90.6944C102.97 92.5734 102.95 95.3919 102.91 99.1499C102.83 103.587 102.45 110.504 101.771 119.899C103.81 120.218 105.169 120.378 105.849 120.378C112.085 120.378 117.262 118.899 121.38 115.941C125.778 112.782 127.977 108.605 127.977 103.408C127.977 100.009 125.918 96.991 121.8 94.3524C117.842 91.7938 113.524 90.5145 108.847 90.5145ZM209.053 166.973C204.335 169.052 197.039 170.911 187.165 172.55C178.13 174.069 170.714 174.829 164.917 174.829C155.122 174.829 150.225 170.531 150.225 161.936C150.225 162.616 150.624 156.279 151.424 142.926C152.463 125.576 152.983 106.266 152.983 84.9975C152.983 82.7187 153.763 80.7798 155.322 79.1807C156.921 77.5815 158.92 76.7819 161.319 76.7819C163.717 76.7819 165.716 77.5815 167.315 79.1807C168.915 80.7798 169.714 82.7187 169.714 84.9975C169.714 106.306 169.174 125.935 168.095 143.886C167.735 147.084 167.355 151.981 166.956 158.578C176.43 158.418 188.584 156.099 203.416 151.621C204.335 151.342 205.215 151.202 206.054 151.202C208.573 151.202 210.612 152.121 212.171 153.96C213.57 155.599 214.27 157.438 214.27 159.477C214.27 162.915 212.531 165.414 209.053 166.973ZM289.17 171.051C286.011 170.931 282.833 167.213 279.635 159.897C277.516 155.18 275.697 149.743 274.178 143.586C271.219 144.026 266.382 144.465 259.665 144.905C253.349 145.345 248.512 145.865 245.153 146.464C243.314 150.862 240.116 157.478 235.559 166.314C233.799 169.192 231.361 170.631 228.242 170.631C226.044 170.631 224.065 169.892 222.306 168.412C220.547 166.893 219.667 164.974 219.667 162.656C219.667 160.617 222.586 153.7 228.422 141.907C227.863 140.667 227.623 139.508 227.703 138.429C227.863 136.51 229.802 135.01 233.52 133.931C239.197 124.096 245.513 113.902 252.469 103.348C262.464 88.1958 268.621 80.6199 270.939 80.6199C275.337 80.6199 278.275 83.2784 279.755 88.5956C280.554 92.8732 281.814 99.2898 283.533 107.845C285.971 119.359 288.95 132.532 292.468 147.364C292.748 148.483 293.767 151.122 295.526 155.28C296.965 158.718 297.685 161.296 297.685 163.015C297.685 165.334 296.805 167.273 295.046 168.832C293.327 170.391 291.368 171.131 289.17 171.051ZM266.802 109.524C263.683 114.881 259.386 122.177 253.909 131.412C255.708 131.013 258.506 130.693 262.304 130.453C266.782 130.173 269.6 129.953 270.759 129.793C269.8 124.596 268.481 117.84 266.802 109.524ZM376.422 95.252C374.383 99.4497 370.286 108.525 364.129 122.477C359.012 134.151 354.654 143.306 351.056 149.942C344.819 161.456 341.481 167.553 341.041 168.233C338.683 171.711 335.964 173.45 332.886 173.45C330.687 173.45 328.748 172.73 327.069 171.291C325.23 169.692 324.311 167.713 324.311 165.354C324.311 163.395 328.488 155.16 336.844 140.647C333.765 136.21 329.348 129.473 323.591 120.438C319.273 113.802 312.937 103.787 304.581 90.3946C303.782 89.0353 303.382 87.6161 303.382 86.1369C303.382 83.8181 304.281 81.8592 306.08 80.2601C307.759 78.7809 309.718 78.0413 311.957 78.0413C314.596 78.0413 316.994 79.3805 319.153 82.0591L323.651 89.2552C323.931 89.7349 327.369 95.5718 333.965 106.766C338.123 113.922 341.801 119.579 344.999 123.737C348.038 117.62 352.415 108.365 358.132 95.9716C359.332 93.2131 361.131 89.0353 363.529 83.4383C365.048 79.8403 367.647 78.0413 371.325 78.0413C373.524 78.0413 375.463 78.7609 377.142 80.2001C378.981 81.7593 379.9 83.7182 379.9 86.0769C379.9 87.4362 378.741 90.4945 376.422 95.252Z" fill="white"/>
</svg>
