<svg width="464" height="226" viewBox="0 0 464 226" fill="none" xmlns="http://www.w3.org/2000/svg">
<path fill-rule="evenodd" clip-rule="evenodd" d="M0 57.5V170.5L58.5 225.5H407L463.5 168.5V57.5L406.5 0H59L0 57.5Z" fill="#EFEFEF"/>
<path fill-rule="evenodd" clip-rule="evenodd" d="M7.17578 60.277V166.097L61.2968 219.831H403.622L457.824 165.696V60.276L405.642 5.66602H60.7768L7.17578 60.277Z" fill="#182939"/>
<path fill-rule="evenodd" clip-rule="evenodd" d="M12.5 61.5V163L64 214.5H400.5L452 162.5V64L399 11H63.5L12.5 61.5Z" fill="#62CEF2"/>
<path d="M64 214.5H400.5L452 162.5V158.489H12.5V163L64 214.5Z" fill="#0076BD"/>
<path fill-rule="evenodd" clip-rule="evenodd" d="M26 67V156L69.5 201.5H394.5L439 155V65.5L390.5 23.5H78L26 67Z" fill="#32C6E0"/>
<path fill-rule="evenodd" clip-rule="evenodd" d="M69.5 201.5H394.5L439 155V110.489H26V156L69.5 201.5Z" fill="#00A7D3"/>
<path fill-rule="evenodd" clip-rule="evenodd" d="M24.5 157.334L41.5 76.667L75.833 43H385.833L424.167 78.667L439 155L439.535 69.614L390.5 28L76.833 26.333L29.167 68.666L24.5 157.334Z" fill="#7EE4F0"/>
<path fill-rule="evenodd" clip-rule="evenodd" d="M63.834 12.333L70.168 25L27.834 65.333L14.168 63.333L25.501 70.666L25.168 155.999L30.834 73.666L75.168 30.666H389.501L432.517 72.317L439.005 154.942L440.501 70L450.501 63L433.501 64.667L394.501 25.667L399.501 12.334L386.501 24.667L78.501 23.667L63.834 12.333Z" fill="white"/>
<path fill-rule="evenodd" clip-rule="evenodd" d="M25.832 156L69.832 195.666H392.499L438.999 155L395.166 204.334H68.499L25.832 156Z" fill="#47CCF5"/>
<path d="M161.355 81.154C163.483 85.4935 164.548 90.3241 164.548 95.646C164.548 100.968 163.483 105.799 161.355 110.138C159.226 114.396 156.483 117.793 153.126 120.332C146.331 125.572 139.289 128.192 132.002 128.192H116.651V142.07C116.651 143.953 116.569 145.386 116.405 146.368C116.323 147.269 115.955 148.333 115.3 149.561C114.153 151.772 110.96 152.877 105.72 152.877C99.9888 152.877 96.6319 151.362 95.6494 148.333C95.1582 146.941 94.9125 144.812 94.9125 141.947V73.7852C94.9125 71.9021 94.9535 70.5102 95.0354 69.6096C95.1991 68.6271 95.6085 67.5217 96.2635 66.2936C97.4098 64.083 100.603 62.9776 105.843 62.9776H132.125C139.33 62.9776 146.331 65.5977 153.126 70.8377C156.483 73.3758 159.226 76.8146 161.355 81.154ZM132.125 106.454C134.581 106.454 136.997 105.553 139.371 103.752C141.745 101.95 142.933 99.2486 142.933 95.646C142.933 92.0435 141.745 89.3416 139.371 87.5403C136.997 85.6572 134.54 84.7156 132.002 84.7156H116.651V106.454H132.125ZM172.511 68.6271C172.511 66.7439 172.552 65.352 172.633 64.4514C172.797 63.4689 173.166 62.3636 173.739 61.1354C174.885 58.9248 178.078 57.8195 183.318 57.8195C188.313 57.8195 191.424 58.9248 192.652 61.1354C193.307 62.3636 193.675 63.4689 193.757 64.4514C193.921 65.4339 194.003 66.8667 194.003 68.7499V125.613C194.003 128.56 194.249 130.443 194.74 131.262C195.231 131.999 196.295 132.367 197.933 132.367C199.652 132.367 200.799 132.449 201.372 132.613C201.945 132.695 202.641 133.022 203.46 133.595C205.097 134.66 205.916 137.566 205.916 142.315C205.916 147.473 205.097 150.626 203.46 151.772C201.331 153.246 196.255 153.491 188.231 152.509C181.926 151.69 177.833 149.602 175.949 146.245C173.657 142.233 172.511 135.847 172.511 127.086V68.6271ZM254.691 95.1548C255.182 90.5698 258.416 88.2772 264.393 88.2772C267.587 88.2772 269.961 88.5229 271.517 89.0141C273.072 89.5054 274.137 90.3651 274.71 91.5932C275.365 92.8213 275.733 93.9267 275.815 94.9092C275.979 95.8098 276.061 97.2017 276.061 99.0848V142.07C276.061 143.953 275.979 145.386 275.815 146.368C275.733 147.269 275.406 148.333 274.833 149.561C273.686 151.69 270.862 152.754 266.358 152.754C261.937 152.754 258.949 152.222 257.393 151.158C255.919 150.012 255.06 148.374 254.814 146.245C251.785 150.585 246.708 152.754 239.585 152.754C232.544 152.754 225.994 149.52 219.935 143.052C213.876 136.584 210.847 129.092 210.847 120.577C210.847 111.98 213.876 104.489 219.935 98.1023C226.076 91.6341 232.789 88.4 240.076 88.4C242.86 88.4 245.398 88.8913 247.691 89.8738C249.983 90.8563 251.58 91.7979 252.48 92.6985C253.381 93.5173 254.118 94.336 254.691 95.1548ZM232.339 120.7C232.339 123.402 233.403 125.858 235.532 128.069C237.661 130.198 240.24 131.262 243.269 131.262C246.299 131.262 248.796 130.157 250.761 127.946C252.808 125.735 253.831 123.32 253.831 120.7C253.831 117.998 252.849 115.501 250.884 113.208C249.001 110.916 246.422 109.77 243.147 109.77C239.953 109.77 237.333 110.916 235.287 113.208C233.322 115.501 232.339 117.998 232.339 120.7ZM343.629 89.0141C348.46 91.1429 350.875 93.722 350.875 96.7514C350.875 98.2251 350.548 99.617 349.893 100.927C349.238 102.237 348.91 102.933 348.91 103.015L316.733 174.984C316.078 176.539 315.505 177.726 315.014 178.545C314.604 179.364 313.908 180.142 312.926 180.879C311.943 181.616 310.715 181.984 309.241 181.984C307.768 181.984 305.598 181.37 302.732 180.142C297.902 178.013 295.486 175.475 295.486 172.527C295.486 170.562 299.416 161.188 307.276 144.403L282.837 103.26C281.199 100.559 280.38 98.5526 280.38 97.2426C280.38 94.6226 282.591 92.0026 287.012 89.3826C289.796 87.745 291.966 86.9263 293.521 86.9263C295.077 86.9263 296.346 87.2538 297.329 87.9088C298.311 88.5638 299.007 89.2597 299.416 89.9966C299.908 90.6516 302.159 94.4589 306.171 101.418C310.265 108.296 314.154 114.723 317.838 120.7C318.248 119.39 320.458 114.355 324.47 105.594C328.482 96.7514 330.611 92.0435 330.857 91.4704C331.184 90.8973 331.675 90.2013 332.33 89.3826C333.395 87.9907 334.869 87.2947 336.752 87.2947C338.717 87.2947 341.009 87.8679 343.629 89.0141Z" fill="#0064B7"/>
<path d="M171.355 87.154C173.483 91.4935 174.548 96.3241 174.548 101.646C174.548 106.968 173.483 111.799 171.355 116.138C169.226 120.396 166.483 123.793 163.126 126.332C156.331 131.572 149.289 134.192 142.002 134.192H126.651V148.07C126.651 149.953 126.569 151.386 126.405 152.368C126.323 153.269 125.955 154.333 125.3 155.561C124.153 157.772 120.96 158.877 115.72 158.877C109.989 158.877 106.632 157.362 105.649 154.333C105.158 152.941 104.913 150.812 104.913 147.947V79.7852C104.913 77.9021 104.953 76.5102 105.035 75.6096C105.199 74.6271 105.608 73.5217 106.263 72.2936C107.41 70.083 110.603 68.9776 115.843 68.9776H142.125C149.33 68.9776 156.331 71.5977 163.126 76.8377C166.483 79.3758 169.226 82.8146 171.355 87.154ZM142.125 112.454C144.581 112.454 146.997 111.553 149.371 109.752C151.745 107.95 152.933 105.249 152.933 101.646C152.933 98.0435 151.745 95.3416 149.371 93.5403C146.997 91.6572 144.54 90.7156 142.002 90.7156H126.651V112.454H142.125ZM182.511 74.6271C182.511 72.7439 182.552 71.352 182.633 70.4514C182.797 69.4689 183.166 68.3636 183.739 67.1354C184.885 64.9248 188.078 63.8195 193.318 63.8195C198.313 63.8195 201.424 64.9248 202.652 67.1354C203.307 68.3636 203.675 69.4689 203.757 70.4514C203.921 71.4339 204.003 72.8667 204.003 74.7499V131.613C204.003 134.56 204.249 136.443 204.74 137.262C205.231 137.999 206.295 138.367 207.933 138.367C209.652 138.367 210.799 138.449 211.372 138.613C211.945 138.695 212.641 139.022 213.46 139.595C215.097 140.66 215.916 143.566 215.916 148.315C215.916 153.473 215.097 156.626 213.46 157.772C211.331 159.246 206.255 159.491 198.231 158.509C191.926 157.69 187.833 155.602 185.949 152.245C183.657 148.233 182.511 141.847 182.511 133.086V74.6271ZM264.691 101.155C265.182 96.5698 268.416 94.2772 274.393 94.2772C277.587 94.2772 279.961 94.5229 281.517 95.0141C283.072 95.5054 284.137 96.3651 284.71 97.5932C285.365 98.8213 285.733 99.9267 285.815 100.909C285.979 101.81 286.061 103.202 286.061 105.085V148.07C286.061 149.953 285.979 151.386 285.815 152.368C285.733 153.269 285.406 154.333 284.833 155.561C283.686 157.69 280.862 158.754 276.358 158.754C271.937 158.754 268.949 158.222 267.393 157.158C265.919 156.012 265.06 154.374 264.814 152.245C261.785 156.585 256.708 158.754 249.585 158.754C242.544 158.754 235.994 155.52 229.935 149.052C223.876 142.584 220.847 135.092 220.847 126.577C220.847 117.98 223.876 110.489 229.935 104.102C236.076 97.6341 242.789 94.4 250.076 94.4C252.86 94.4 255.398 94.8913 257.691 95.8738C259.983 96.8563 261.58 97.7979 262.48 98.6985C263.381 99.5173 264.118 100.336 264.691 101.155ZM242.339 126.7C242.339 129.402 243.403 131.858 245.532 134.069C247.661 136.198 250.24 137.262 253.269 137.262C256.299 137.262 258.796 136.157 260.761 133.946C262.808 131.735 263.831 129.32 263.831 126.7C263.831 123.998 262.849 121.501 260.884 119.208C259.001 116.916 256.422 115.77 253.147 115.77C249.953 115.77 247.333 116.916 245.287 119.208C243.322 121.501 242.339 123.998 242.339 126.7ZM353.629 95.0141C358.46 97.1429 360.875 99.722 360.875 102.751C360.875 104.225 360.548 105.617 359.893 106.927C359.238 108.237 358.91 108.933 358.91 109.015L326.733 180.984C326.078 182.539 325.505 183.726 325.014 184.545C324.604 185.364 323.908 186.142 322.926 186.879C321.943 187.616 320.715 187.984 319.241 187.984C317.768 187.984 315.598 187.37 312.732 186.142C307.902 184.013 305.486 181.475 305.486 178.527C305.486 176.562 309.416 167.188 317.276 150.403L292.837 109.26C291.199 106.559 290.38 104.553 290.38 103.243C290.38 100.623 292.591 98.0026 297.012 95.3826C299.796 93.745 301.966 92.9263 303.521 92.9263C305.077 92.9263 306.346 93.2538 307.329 93.9088C308.311 94.5638 309.007 95.2597 309.416 95.9966C309.908 96.6516 312.159 100.459 316.171 107.418C320.265 114.296 324.154 120.723 327.838 126.7C328.248 125.39 330.458 120.355 334.47 111.594C338.482 102.751 340.611 98.0435 340.857 97.4704C341.184 96.8973 341.675 96.2013 342.33 95.3826C343.395 93.9907 344.869 93.2947 346.752 93.2947C348.717 93.2947 351.009 93.8679 353.629 95.0141Z" fill="white"/>
</svg>
